<?xml version="1.0" encoding="UTF-8"?>
<svg width="28px" height="28px" viewBox="0 0 28 28" version="1.1" xmlns="http://www.w3.org/2000/svg" xmlns:xlink="http://www.w3.org/1999/xlink">
    <!-- Generator: sketchtool 53.2 (72643) - https://sketchapp.com -->
    <title>EA2797B2-8F95-4C59-A445-399A98F55134</title>
    <desc>Created with sketchtool.</desc>
    <g id="Page-1" stroke="none" stroke-width="1" fill="none" fill-rule="evenodd">
        <g id="21-Tableau" transform="translate(-1129.000000, -206.000000)">
            <g id="Contenu" transform="translate(74.000000, 74.000000)">
                <g id="icones" transform="translate(1055.000000, 132.000000)">
                    <g id="Ico_Edit">
                        <path d="M14,0 C6.2680135,-4.73447626e-16 9.46895252e-16,6.2680135 0,14 C-9.46895252e-16,21.7319865 6.2680135,28 14,28 C21.7319865,28 28,21.7319865 28,14 C27.991641,6.27147856 21.7285214,0.00835898888 14,0 Z" id="Shape" fill="#AFA899"></path>
                        <g id="pencil-write-2" transform="translate(8.000000, 6.000000)" fill="#FFFFFF" fill-rule="nonzero">
                            <path d="M7.72195,9.01949707 C7.61669554,9.12485906 7.49114208,9.20775054 7.3529,9.26314707 L5.40865,10.0408471 C5.00004211,10.2044031 4.53327573,10.1086536 4.22205958,9.79743749 C3.91084343,9.48622134 3.81509395,9.01945496 3.97865,8.61084707 L4.7569,6.66659707 C4.81206821,6.52820575 4.89477378,6.40246333 5,6.29699707 L8.3303,3 L1.7149,3 C0.76837836,3.00090905 0.0012126645,3.7678287 0,4.71435 L0,12.28565 C0.00151491509,13.2320458 0.768503743,13.9987887 1.7149,14 L9.28565,14 C10.2319569,13.998788 10.998788,13.2319569 11,12.28565 L11,5.77255 C10.4577889,6.29402582 9.98128889,6.76015818 9.5705,7.17094707 C9.15971111,7.58173596 8.54352778,8.19791929 7.72195,9.01949707 Z" id="Path"></path>
                            <path d="M11.9759874,0.359198853 L5.91889605,6.4167685 C5.89079471,6.44509724 5.86858521,6.47871427 5.85355081,6.51567721 L5.02113491,8.59688128 C4.97725494,8.70637645 5.00297161,8.83149444 5.08648015,8.91480213 C5.17032631,8.99688707 5.29448416,9.02222741 5.4037872,8.97956378 L7.48247217,8.14708215 C7.51952933,8.13223146 7.55317853,8.1099972 7.58137307,8.08173176 L13.6402305,2.02475085 C13.946404,1.72922238 14.0693075,1.29147387 13.9617034,0.879753622 C13.8540992,0.468033371 13.5327329,0.146414316 13.1211213,0.0385104877 C12.7095098,-0.0693933411 12.271709,0.0532103207 11.9759874,0.359198853 L11.9759874,0.359198853 Z" id="Path"></path>
                        </g>
                    </g>
                </g>
            </g>
        </g>
    </g>
</svg>