<?xml version="1.0" encoding="UTF-8"?>
<svg width="28px" height="28px" viewBox="0 0 28 28" version="1.1" xmlns="http://www.w3.org/2000/svg" xmlns:xlink="http://www.w3.org/1999/xlink">
    <!-- Generator: sketchtool 53.2 (72643) - https://sketchapp.com -->
    <title>000331EC-604C-4B96-B947-7CF55654869E</title>
    <desc>Created with sketchtool.</desc>
    <g id="Page-1" stroke="none" stroke-width="1" fill="none" fill-rule="evenodd">
        <g id="21-Tableau" transform="translate(-1217.000000, -206.000000)">
            <g id="Contenu" transform="translate(74.000000, 74.000000)">
                <g id="icones" transform="translate(1055.000000, 132.000000)">
                    <g id="Ico_Print" transform="translate(88.000000, 0.000000)">
                        <path d="M14,0 C6.2680135,-4.73447626e-16 9.46895252e-16,6.2680135 0,14 C-9.46895252e-16,21.7319865 6.2680135,28 14,28 C21.7319865,28 28,21.7319865 28,14 C27.991641,6.27147856 21.7285214,0.00835898888 14,0 Z" id="Shape" fill="#AFA899"></path>
                        <g id="Group" transform="translate(7.000000, 7.000000)" fill="#FFFFFF">
                            <path d="M3.35416667,3.5 C3.67633277,3.5 3.9375,3.23883277 3.9375,2.91666667 L3.9375,1.16666667 L9.09183333,1.16666667 L10.3541667,2.42841667 L10.3541667,2.91666667 C10.3541667,3.23883277 10.6153339,3.5 10.9375,3.5 C11.2596661,3.5 11.5208333,3.23883277 11.5208333,2.91666667 L11.5208333,2.18691667 C11.5208003,2.03221969 11.4593205,1.88387076 11.3499167,1.7745 L9.91666667,0.342416667 C9.69765945,0.1239354 9.40118344,0.000858016994 9.09183333,0 L3.9375,0 C3.29316779,-3.94539688e-17 2.77083333,0.522334459 2.77083333,1.16666667 L2.77083333,2.91666667 C2.77083333,3.23883277 3.03200056,3.5 3.35416667,3.5 Z" id="Path"></path>
                            <path d="M12.5416667,4.08333333 L1.45833333,4.08333333 C0.652918073,4.08333333 9.8634922e-17,4.73625141 0,5.54166667 L0,8.16666667 C9.8634922e-17,8.97208193 0.652918073,9.625 1.45833333,9.625 L2.91666667,9.625 L2.91666667,13.2708333 C2.91698834,13.6734076 3.24325902,13.9996783 3.64583333,14 L10.6458333,14 C11.0484076,13.9996783 11.3746783,13.6734076 11.375,13.2708333 L11.375,9.625 L12.5416667,9.625 C12.9284407,9.625 13.2993735,9.47135461 13.5728641,9.19786406 C13.8463546,8.9243735 14,8.55344071 14,8.16666667 L14,5.54166667 C14,5.15489262 13.8463546,4.78395983 13.5728641,4.51046928 C13.2993735,4.23697873 12.9284407,4.08333333 12.5416667,4.08333333 Z M2.04166667,6.70833333 C1.71950056,6.70833333 1.45833333,6.4471661 1.45833333,6.125 C1.45833333,5.8028339 1.71950056,5.54166667 2.04166667,5.54166667 C2.36383277,5.54166667 2.625,5.8028339 2.625,6.125 C2.625,6.4471661 2.36383277,6.70833333 2.04166667,6.70833333 Z M10.2083333,12.5416667 C10.2083333,12.7027497 10.0777497,12.8333333 9.91666667,12.8333333 L4.375,12.8333333 C4.21391695,12.8333333 4.08333333,12.7027497 4.08333333,12.5416667 L4.08333333,7.26658333 C4.08333333,7.10550028 4.21391695,6.97491667 4.375,6.97491667 L9.91666667,6.97491667 C10.0777497,6.97491667 10.2083333,7.10550028 10.2083333,7.26658333 L10.2083333,12.5416667 Z" id="Shape" fill-rule="nonzero"></path>
                            <path d="M8.56683333,9.2715 C8.52576885,9.17188989 8.4331351,9.1030314 8.32591667,9.09241667 C8.21908277,9.08299431 8.11544675,9.13180354 8.05466667,9.22016667 L7.08633333,10.6650833 L6.125,9.87758333 C6.05700734,9.82155437 5.96733175,9.79926217 5.88101836,9.81693263 C5.79470497,9.83460309 5.72100433,9.89034239 5.6805,9.96858333 L4.725,11.8241667 C4.67825072,11.914403 4.68184166,12.0224671 4.73447824,12.1094008 C4.78711483,12.1963346 4.88120694,12.2496021 4.98283333,12.25 L9.35783333,12.25 C9.45504402,12.2499041 9.5458175,12.201383 9.59990229,12.120607 C9.65398709,12.039831 9.66427346,11.9374186 9.62733333,11.8475 L8.56683333,9.2715 Z" id="Path"></path>
                        </g>
                    </g>
                </g>
            </g>
        </g>
    </g>
</svg>