<?xml version="1.0" encoding="UTF-8"?>
<svg width="28px" height="28px" viewBox="0 0 28 28" version="1.1" xmlns="http://www.w3.org/2000/svg" xmlns:xlink="http://www.w3.org/1999/xlink">
    <!-- Generator: sketchtool 53.2 (72643) - https://sketchapp.com -->
    <title>9CB2F0ED-AFD1-426D-BE8E-C8A410AEE140@3x</title>
    <desc>Created with sketchtool.</desc>
    <g id="Page-1" stroke="none" stroke-width="1" fill="none" fill-rule="evenodd" opacity="0.5">
        <g id="21-Tableau" transform="translate(-1182.000000, -311.000000)">
            <g id="Contenu" transform="translate(74.000000, 74.000000)">
                <g id="Tableau" transform="translate(35.000000, 199.000000)">
                    <g id="Filtre" transform="translate(50.000000, 32.000000)">
                        <g id="Heures-jours-fériés" transform="translate(1023.000000, 6.000000)">
                            <g id="Plus" transform="translate(14.000000, 14.000000) rotate(90.000000) translate(-14.000000, -14.000000) ">
                                <path d="M13.9997296,0.500000003 C6.54400975,0.500146133 0.5,6.54424601 0.5,14 C0.5,21.4558441 6.54415588,27.5 14,27.5 C21.4558441,27.5 27.5,21.4558441 27.5000003,14.0005408 C27.4919396,6.5478294 21.4524068,0.508206568 13.9997296,0.500000003 Z" id="Shape" stroke="#AFA899" fill="#FFFFFF"></path>
                                <g id="Group" transform="translate(8.000000, 12.000000)" fill="#AFA899">
                                    <circle id="Oval" cx="2" cy="2" r="2"></circle>
                                    <path d="M10,4 C11.1045695,4 12,3.1045695 12,2 C12,0.8954305 11.1045695,0 10,0 C8.8954305,0 8,0.8954305 8,2 C8,3.1045695 8.8954305,4 10,4 Z" id="Oval-Copy-2"></path>
                                </g>
                            </g>
                        </g>
                    </g>
                </g>
            </g>
        </g>
    </g>
</svg>