<?xml version="1.0" encoding="UTF-8"?>
<svg width="24px" height="24px" viewBox="0 0 24 24" version="1.1" xmlns="http://www.w3.org/2000/svg" xmlns:xlink="http://www.w3.org/1999/xlink">
    <!-- Generator: sketchtool 52.2 (67145) - http://www.bohemiancoding.com/sketch -->
    <title>9F250CC1-2657-4299-B153-EDB6BDD64B86</title>
    <desc>Created with sketchtool.</desc>
    <g id="Page-1" stroke="none" stroke-width="1" fill="none" fill-rule="evenodd">
        <g id="01-Accueil" transform="translate(-787.000000, -535.000000)">
            <g id="Contenu" transform="translate(74.000000, 74.000000)">
                <g id="Anomalies-sociales" transform="translate(693.000000, 399.000000)">
                    <g id="1" transform="translate(20.000000, 62.000000)">
                        <g id="Ico_Calendrier">
                            <circle id="Oval" fill="#FF9B42" cx="12" cy="12" r="12"></circle>
                            <g id="calendar-3" transform="translate(6.000000, 6.000000)" fill="#FFFFFF">
                                <path d="M3.75,5.25 L3.25,5.25 C2.97385763,5.25 2.75,5.47385763 2.75,5.75 C2.75,6.02614237 2.97385763,6.25 3.25,6.25 L3.75,6.25 C4.02614237,6.25 4.25,6.02614237 4.25,5.75 C4.25,5.47385763 4.02614237,5.25 3.75,5.25 Z" id="Path"></path>
                                <path d="M6.25,5.25 L5.75,5.25 C5.47385763,5.25 5.25,5.47385763 5.25,5.75 C5.25,6.02614237 5.47385763,6.25 5.75,6.25 L6.25,6.25 C6.52614237,6.25 6.75,6.02614237 6.75,5.75 C6.75,5.47385763 6.52614237,5.25 6.25,5.25 Z" id="Path"></path>
                                <path d="M8.75,5.25 L8.25,5.25 C7.97385763,5.25 7.75,5.47385763 7.75,5.75 C7.75,6.02614237 7.97385763,6.25 8.25,6.25 L8.75,6.25 C9.02614237,6.25 9.25,6.02614237 9.25,5.75 C9.25,5.47385763 9.02614237,5.25 8.75,5.25 Z" id="Path"></path>
                                <path d="M3.75,7.25 L3.25,7.25 C2.97385763,7.25 2.75,7.47385763 2.75,7.75 C2.75,8.02614237 2.97385763,8.25 3.25,8.25 L3.75,8.25 C4.02614237,8.25 4.25,8.02614237 4.25,7.75 C4.25,7.47385763 4.02614237,7.25 3.75,7.25 Z" id="Path"></path>
                                <path d="M6.25,7.25 L5.75,7.25 C5.47385763,7.25 5.25,7.47385763 5.25,7.75 C5.25,8.02614237 5.47385763,8.25 5.75,8.25 L6.25,8.25 C6.52614237,8.25 6.75,8.02614237 6.75,7.75 C6.75,7.47385763 6.52614237,7.25 6.25,7.25 Z" id="Path"></path>
                                <path d="M8.75,7.25 L8.25,7.25 C7.97385763,7.25 7.75,7.47385763 7.75,7.75 C7.75,8.02614237 7.97385763,8.25 8.25,8.25 L8.75,8.25 C9.02614237,8.25 9.25,8.02614237 9.25,7.75 C9.25,7.47385763 9.02614237,7.25 8.75,7.25 Z" id="Path"></path>
                                <path d="M3.75,9.25 L3.25,9.25 C2.97385763,9.25 2.75,9.47385763 2.75,9.75 C2.75,10.0261424 2.97385763,10.25 3.25,10.25 L3.75,10.25 C4.02614237,10.25 4.25,10.0261424 4.25,9.75 C4.25,9.47385763 4.02614237,9.25 3.75,9.25 Z" id="Path"></path>
                                <path d="M6.25,9.25 L5.75,9.25 C5.47385763,9.25 5.25,9.47385763 5.25,9.75 C5.25,10.0261424 5.47385763,10.25 5.75,10.25 L6.25,10.25 C6.52614237,10.25 6.75,10.0261424 6.75,9.75 C6.75,9.47385763 6.52614237,9.25 6.25,9.25 Z" id="Path"></path>
                                <path d="M8.75,9.25 L8.25,9.25 C7.97385763,9.25 7.75,9.47385763 7.75,9.75 C7.75,10.0261424 7.97385763,10.25 8.25,10.25 L8.75,10.25 C9.02614237,10.25 9.25,10.0261424 9.25,9.75 C9.25,9.47385763 9.02614237,9.25 8.75,9.25 Z" id="Path"></path>
                                <path d="M10.75,1.5 L9.375,1.5 C9.30596441,1.5 9.25,1.44403559 9.25,1.375 L9.25,0.5 C9.25,0.223857625 9.02614237,1.69088438e-17 8.75,0 C8.47385763,-1.69088438e-17 8.25,0.223857625 8.25,0.5 L8.25,2.875 C8.25,3.08210678 8.08210678,3.25 7.875,3.25 C7.66789322,3.25 7.5,3.08210678 7.5,2.875 L7.5,1.75 C7.5,1.61192881 7.38807119,1.5 7.25,1.5 L4.125,1.5 C4.0561592,1.50000055 4.00027536,1.44434025 4,1.3755 L4,0.5 C4,0.223857625 3.77614237,1.69088438e-17 3.5,0 C3.22385763,-1.69088438e-17 3,0.223857625 3,0.5 L3,2.875 C3,3.08210678 2.83210678,3.25 2.625,3.25 C2.41789322,3.25 2.25,3.08210678 2.25,2.875 L2.25,1.75 C2.25,1.61192881 2.13807119,1.5 2,1.5 L1.25,1.5 C0.69771525,1.5 0.25,1.94771525 0.25,2.5 L0.25,11 C0.25,11.5522847 0.69771525,12 1.25,12 L10.75,12 C11.3022847,12 11.75,11.5522847 11.75,11 L11.75,2.5 C11.75,1.94771525 11.3022847,1.5 10.75,1.5 Z M10.75,10.75 C10.75,10.8880712 10.6380712,11 10.5,11 L1.5,11 C1.36192881,11 1.25,10.8880712 1.25,10.75 L1.25,4.75 C1.25,4.61192881 1.36192881,4.5 1.5,4.5 L10.5,4.5 C10.6380712,4.5 10.75,4.61192881 10.75,4.75 L10.75,10.75 Z" id="Shape" fill-rule="nonzero"></path>
                            </g>
                        </g>
                    </g>
                </g>
            </g>
        </g>
    </g>
</svg>