<?xml version="1.0" encoding="UTF-8"?>
<svg width="28px" height="28px" viewBox="0 0 28 28" version="1.1" xmlns="http://www.w3.org/2000/svg" xmlns:xlink="http://www.w3.org/1999/xlink">
    <!-- Generator: sketchtool 53.2 (72643) - https://sketchapp.com -->
    <title>E791CE64-244E-4049-98B5-8494281F7330</title>
    <desc>Created with sketchtool.</desc>
    <g id="Page-1" stroke="none" stroke-width="1" fill="none" fill-rule="evenodd">
        <g id="11-Employés&gt;Thibault-Coste-Rapports-" transform="translate(-1061.000000, -341.000000)">
            <g id="Contenu" transform="translate(74.000000, 74.000000)">
                <g id="01" transform="translate(70.000000, 251.000000)">
                    <g id="dl-small" transform="translate(917.000000, 16.000000)">
                        <path d="M14,0 C6.2680135,-4.73447626e-16 9.46895252e-16,6.2680135 0,14 C-9.46895252e-16,21.7319865 6.2680135,28 14,28 C21.7319865,28 28,21.7319865 28,14 C27.991641,6.27147856 21.7285214,0.00835898888 14,0 Z" id="Shape" fill="#AFA899"></path>
                        <path d="M19.207,15.707 L14.707,20.207 C14.3165001,20.5973819 13.6834999,20.5973819 13.293,20.207 L8.793,15.707 C8.41402779,15.3146211 8.41944763,14.6909152 8.80518142,14.3051814 C9.19091522,13.9194476 9.81462111,13.9140278 10.207,14.293 L12.573,16.659 C12.6447632,16.7309547 12.752942,16.7523087 12.8466641,16.71302 C12.9403862,16.6737314 13.0009996,16.581619 13,16.48 L13,8 C13,7.44771525 13.4477153,7 14,7 C14.5522847,7 15,7.44771525 15,8 L15,16.48 C14.9998188,16.5812544 15.0607314,16.6726192 15.1542684,16.7113922 C15.2478053,16.7501651 15.3554929,16.7286884 15.427,16.657 L17.793,14.291 C18.1853789,13.9120278 18.8090848,13.9174476 19.1948186,14.3031814 C19.5805524,14.6889152 19.5859722,15.3126211 19.207,15.705 L19.207,15.707 Z" id="Path" fill="#FFFFFF" fill-rule="nonzero"></path>
                    </g>
                </g>
            </g>
        </g>
    </g>
</svg>