<?xml version="1.0" encoding="UTF-8"?>
<svg width="28px" height="28px" viewBox="0 0 28 28" version="1.1" xmlns="http://www.w3.org/2000/svg" xmlns:xlink="http://www.w3.org/1999/xlink">
    <!-- Generator: sketchtool 53.2 (72643) - https://sketchapp.com -->
    <title>747CB6A9-FB24-415C-AF04-92D733319DD1</title>
    <desc>Created with sketchtool.</desc>
    <g id="Page-1" stroke="none" stroke-width="1" fill="none" fill-rule="evenodd">
        <g id="09-Employés&gt;Thibault-Coste-Absences" transform="translate(-1103.000000, -341.000000)">
            <g id="Contenu" transform="translate(74.000000, 74.000000)">
                <g id="01" transform="translate(70.000000, 251.000000)">
                    <g id="Email-Small" transform="translate(959.000000, 16.000000)">
                        <path d="M14,0 C6.2680135,-4.73447626e-16 9.46895252e-16,6.2680135 0,14 C-9.46895252e-16,21.7319865 6.2680135,28 14,28 C21.7319865,28 28,21.7319865 28,14 C27.991641,6.27147856 21.7285214,0.00835898888 14,0 Z" id="Shape" fill="#AFA899"></path>
                        <g id="envelope" transform="translate(7.000000, 9.000000)" fill="#FFFFFF">
                            <path d="M6.48316667,6.5975 C6.76820554,6.90200543 7.22946113,6.90200543 7.5145,6.5975 L13.1646667,0.54375 C13.2429047,0.460228862 13.2704012,0.336523913 13.2356981,0.224184436 C13.200995,0.111844959 13.1100458,0.0301431123 13.00075,0.013125 C12.9453186,0.00437408715 12.8893632,-1.2660993e-05 12.8333333,-1.05879118e-22 L1.16666667,-1.05879118e-22 C1.1102474,-7.39458381e-05 1.05389995,0.00431296618 0.998083333,0.013125 C0.888787521,0.0301431123 0.797838284,0.111844959 0.763135221,0.224184436 C0.728432159,0.336523913 0.75592868,0.460228862 0.834166667,0.54375 L6.48316667,6.5975 Z" id="Path"></path>
                            <path d="M13.9346667,1.145 C13.8947793,1.12685265 13.8486014,1.13650054 13.818,1.169375 L10.2013333,5.044375 C10.1445293,5.10556868 10.1445293,5.20443132 10.2013333,5.265625 L13.1430833,8.4175 C13.2568649,8.53513398 13.3025527,8.70939316 13.2625867,8.87330138 C13.2226206,9.0372096 13.1032204,9.16525915 12.9502771,9.20823444 C12.7973339,9.25120974 12.634649,9.20242288 12.52475,9.080625 L9.583,5.92875 C9.55564042,5.89936197 9.51849128,5.88284569 9.47975,5.88284569 C9.44100872,5.88284569 9.40385958,5.89936197 9.3765,5.92875 L8.13458333,7.259375 C7.5081899,7.93013571 6.49297677,7.93013571 5.86658333,7.259375 L4.6235,5.93 C4.56638589,5.86913857 4.47411411,5.86913857 4.417,5.93 L1.47525,9.081875 C1.30350636,9.25943347 1.03063466,9.256756 0.86195494,9.07585723 C0.693275218,8.89495846 0.691033553,8.60259353 0.856916667,8.41875 L3.79866667,5.266875 C3.85547066,5.20568132 3.85547066,5.10681868 3.79866667,5.045625 L0.182,1.170625 C0.151559864,1.13742782 0.105184419,1.12773867 0.0653333333,1.14625 C0.0261597036,1.16373499 0.000467412445,1.20453461 0,1.25 L0,8.75 C9.06948054e-17,9.44035594 0.522334459,10 1.16666667,10 L12.8333333,10 C13.4776655,10 14,9.44035594 14,8.75 L14,1.25 C14.0001582,1.20402787 13.9743343,1.16252509 13.9346667,1.145 Z" id="Path"></path>
                        </g>
                    </g>
                </g>
            </g>
        </g>
    </g>
</svg>