<?xml version="1.0" encoding="UTF-8"?>
<svg width="28px" height="28px" viewBox="0 0 28 28" version="1.1" xmlns="http://www.w3.org/2000/svg" xmlns:xlink="http://www.w3.org/1999/xlink">
    <!-- Generator: sketchtool 53.2 (72643) - https://sketchapp.com -->
    <title>1514EDCA-09F6-493B-9444-4203A2A05096</title>
    <desc>Created with sketchtool.</desc>
    <g id="Page-1" stroke="none" stroke-width="1" fill="none" fill-rule="evenodd">
        <g id="04-Employés" transform="translate(-1134.000000, -259.000000)">
            <g id="Contenu" transform="translate(74.000000, 74.000000)">
                <g id="01" transform="translate(35.000000, 169.000000)">
                    <g id="Ico_View" transform="translate(1025.000000, 16.000000)">
                        <g>
                            <path d="M14,0 C6.2680135,-4.73447626e-16 9.46895252e-16,6.2680135 0,14 C-9.46895252e-16,21.7319865 6.2680135,28 14,28 C21.7319865,28 28,21.7319865 28,14 C27.991641,6.27147856 21.7285214,0.00835898888 14,0 Z" id="Path" fill="#AFA899"></path>
                            <path d="M20.670641,13.0030881 C19.1271733,11.0369982 16.567176,8.95875338 13.9995927,9.00064258 C11.4320094,8.95807774 8.8720121,11.0376738 7.3285444,13.0030881 C6.8904852,13.5701446 6.8904852,14.4277955 7.3285444,14.994852 C8.85392231,16.9399972 11.37774,19 13.9056425,19 L14.0853733,19 C16.6220289,19 19.1452631,16.9399972 20.6723916,14.9941763 C21.1098706,14.4268255 21.1091167,13.5694065 20.670641,13.0030881 Z M11,14 C11,12.3431458 12.3431458,11 14,11 C15.6568542,11 17,12.3431458 17,14 C17,15.6568542 15.6568542,17 14,17 C12.3431458,17 11,15.6568542 11,14 Z" id="Shape" fill="#FFFFFF" fill-rule="nonzero"></path>
                            <circle id="Oval" fill="#FFFFFF" cx="14" cy="14" r="1"></circle>
                        </g>
                    </g>
                </g>
            </g>
        </g>
    </g>
</svg>