<?xml version="1.0" encoding="UTF-8"?>
<svg width="28px" height="28px" viewBox="0 0 28 28" version="1.1" xmlns="http://www.w3.org/2000/svg" xmlns:xlink="http://www.w3.org/1999/xlink">
    <!-- Generator: sketchtool 53.2 (72643) - https://sketchapp.com -->
    <title>6125CB3A-EB9F-41BE-9F71-72B7CE97A62D</title>
    <desc>Created with sketchtool.</desc>
    <g id="Page-1" stroke="none" stroke-width="1" fill="none" fill-rule="evenodd">
        <g id="13-Planning-Semaine52" transform="translate(-1217.000000, -206.000000)">
            <g id="Contenu" transform="translate(74.000000, 74.000000)">
                <g id="icones" transform="translate(1011.000000, 132.000000)">
                    <g id="Plus" transform="translate(132.000000, 0.000000)">
                        <path d="M14,0 C6.2680135,-4.73447626e-16 9.46895252e-16,6.2680135 0,14 C-9.46895252e-16,21.7319865 6.2680135,28 14,28 C21.7319865,28 28,21.7319865 28,14 C27.991641,6.27147856 21.7285214,0.00835898888 14,0 Z" id="Shape" fill="#AFA899"></path>
                        <g id="Group" transform="translate(8.000000, 12.000000)" fill="#FFFFFF">
                            <circle id="Oval" cx="2" cy="2" r="2"></circle>
                            <path d="M10,4 C11.1045695,4 12,3.1045695 12,2 C12,0.8954305 11.1045695,0 10,0 C8.8954305,0 8,0.8954305 8,2 C8,3.1045695 8.8954305,4 10,4 Z" id="Oval-Copy-2"></path>
                        </g>
                    </g>
                </g>
            </g>
        </g>
    </g>
</svg>