<?xml version="1.0" encoding="UTF-8"?>
<svg width="38px" height="38px" viewBox="0 0 38 38" version="1.1" xmlns="http://www.w3.org/2000/svg" xmlns:xlink="http://www.w3.org/1999/xlink">
    <!-- Generator: sketchtool 53.2 (72643) - https://sketchapp.com -->
    <title>98DDC612-18FC-4EFE-9A74-7A6C4A6CAA72</title>
    <desc>Created with sketchtool.</desc>
    <g id="Page-1" stroke="none" stroke-width="1" fill="none" fill-rule="evenodd">
        <g id="04-Employés" transform="translate(-1207.000000, -118.000000)">
            <g id="print-picture" transform="translate(1207.000000, 118.000000)">
                <circle id="Oval" fill="#AFA899" cx="19" cy="19" r="19"></circle>
                <g id="Group" transform="translate(10.000000, 10.000000)" fill="#FFFFFF">
                    <path d="M4.3125,4.5 C4.72671356,4.5 5.0625,4.16421356 5.0625,3.75 L5.0625,1.5 L11.6895,1.5 L13.3125,3.12225 L13.3125,3.75 C13.3125,4.16421356 13.6482864,4.5 14.0625,4.5 C14.4767136,4.5 14.8125,4.16421356 14.8125,3.75 L14.8125,2.81175 C14.8124575,2.61285389 14.733412,2.42211955 14.59275,2.2815 L12.75,0.44025 C12.4684193,0.159345514 12.0872359,0.00110316471 11.6895,0 L5.0625,0 C4.23407288,-5.07265313e-17 3.5625,0.671572875 3.5625,1.5 L3.5625,3.75 C3.5625,4.16421356 3.89828644,4.5 4.3125,4.5 Z" id="Path"></path>
                    <path d="M16.125,5.25 L1.875,5.25 C0.839466094,5.25 -1.64954051e-15,6.08946609 -1.77635684e-15,7.125 L-1.77635684e-15,10.5 C-1.64954051e-15,11.5355339 0.839466094,12.375 1.875,12.375 L3.75,12.375 L3.75,17.0625 C3.75041358,17.5800955 4.16990445,17.9995864 4.6875,18 L13.6875,18 C14.2050955,17.9995864 14.6245864,17.5800955 14.625,17.0625 L14.625,12.375 L16.125,12.375 C16.6222809,12.375 17.0991945,12.1774559 17.4508252,11.8258252 C17.8024559,11.4741945 18,10.9972809 18,10.5 L18,7.125 C18,6.62771908 17.8024559,6.15080549 17.4508252,5.79917479 C17.0991945,5.44754408 16.6222809,5.25 16.125,5.25 Z M2.625,8.625 C2.21078644,8.625 1.875,8.28921356 1.875,7.875 C1.875,7.46078644 2.21078644,7.125 2.625,7.125 C3.03921356,7.125 3.375,7.46078644 3.375,7.875 C3.375,8.28921356 3.03921356,8.625 2.625,8.625 Z M13.125,16.125 C13.125,16.3321068 12.9571068,16.5 12.75,16.5 L5.625,16.5 C5.41789322,16.5 5.25,16.3321068 5.25,16.125 L5.25,9.34275 C5.25,9.13564322 5.41789322,8.96775 5.625,8.96775 L12.75,8.96775 C12.9571068,8.96775 13.125,9.13564322 13.125,9.34275 L13.125,16.125 Z" id="Shape" fill-rule="nonzero"></path>
                    <path d="M11.0145,11.9205 C10.9617028,11.7924299 10.8426023,11.7038975 10.70475,11.69025 C10.5673921,11.6781355 10.4341458,11.7408903 10.356,11.8545 L9.111,13.71225 L7.875,12.69975 C7.78758087,12.6277128 7.67228368,12.5990514 7.56130932,12.6217705 C7.45033497,12.6444897 7.355577,12.7161545 7.3035,12.81675 L6.075,15.2025 C6.01489378,15.3185181 6.01951071,15.4574577 6.08718631,15.5692297 C6.15486192,15.6810016 6.27583749,15.7494885 6.4065,15.75 L12.0315,15.75 C12.1564852,15.7498767 12.2731939,15.6874925 12.3427315,15.5836376 C12.4122691,15.4797828 12.4254944,15.3481096 12.378,15.2325 L11.0145,11.9205 Z" id="Path"></path>
                </g>
            </g>
        </g>
    </g>
</svg>