<?xml version="1.0" encoding="UTF-8"?>
<svg width="24px" height="24px" viewBox="0 0 24 24" version="1.1" xmlns="http://www.w3.org/2000/svg" xmlns:xlink="http://www.w3.org/1999/xlink">
    <!-- Generator: sketchtool 52.2 (67145) - http://www.bohemiancoding.com/sketch -->
    <title>1906C793-A885-4F21-BCC9-8D7A94F1C1A6</title>
    <desc>Created with sketchtool.</desc>
    <g id="Page-1" stroke="none" stroke-width="1" fill="none" fill-rule="evenodd" opacity="0.349999994">
        <g id="01-Accueil" transform="translate(-25.000000, -555.000000)" fill="#AFA899">
            <g id="Bar_Latéral" transform="translate(0.000000, 74.000000)">
                <g id="Menu_Icon_Principal">
                    <g transform="translate(25.000000, 35.000000)">
                        <g id="Rapports_OFF" transform="translate(0.000000, 446.000000)">
                            <g id="Rapports">
                                <path d="M2.939,24 L21.061,24 C22.6834794,23.9983464 23.9983464,22.6834794 24,21.061 L24,2.939 C23.9983464,1.31652057 22.6834794,0.00165362395 21.061,0 L2.939,0 C1.31652057,0.00165362395 0.00165362395,1.31652057 0,2.939 L0,21.061 C0.00165362395,22.6834794 1.31652057,23.9983464 2.939,24 Z M21.061,22.041 L2.939,22.041 C2.39776095,22.041 1.959,21.6022391 1.959,21.061 L1.959,3 C1.959,2.44771525 2.40671525,2 2.959,2 L21.041,2 C21.5932847,2 22.041,2.44771525 22.041,3 L22.041,21.061 C22.041,21.6022391 21.6022391,22.041 21.061,22.041 Z" id="Shape" fill-rule="nonzero"></path>
                                <path d="M18.836,15.592 L16.772,17.424 C16.683249,17.5018936 16.5523113,17.5077131 16.457,17.438 L15.091,16.426 C14.7591435,16.1935181 14.3609973,16.0746004 13.956,16.087 C13.5441974,16.096009 13.1484468,16.2484384 12.837,16.518 L10.32,18.752 C9.90578644,19.1187171 9.86728293,19.7517864 10.234,20.166 C10.6007171,20.5802136 11.2337864,20.6187171 11.648,20.252 L13.881,18.27 C13.9692784,18.1918936 14.1001208,18.1860598 14.195,18.256 L15.561,19.268 C15.8926389,19.5010327 16.2908621,19.6203242 16.696,19.608 C17.1079113,19.5986286 17.503649,19.4458505 17.815,19.176 L20.164,17.092 C20.4319492,16.8547756 20.5529868,16.4926221 20.4815191,16.1419591 C20.4100513,15.7912961 20.156936,15.5053978 19.8175191,15.3919591 C19.4781021,15.2785205 19.1039492,15.3547756 18.836,15.592 Z" id="Path"></path>
                                <path d="M14.331,10.123 C14.2949499,10.0722727 14.23808,10.0403522 14.176,10.036 L10.11,9.722 C10.0430654,9.7164039 9.9774925,9.7431637 9.93358495,9.79399362 C9.8896774,9.84482353 9.87273361,9.91358983 9.888,9.979 L10.772,13.96 C10.7858758,14.0204254 10.825275,14.0718634 10.88,14.101 C10.9348191,14.1298341 10.9995389,14.1331249 11.057,14.11 C12.710836,13.449566 13.9432237,12.0301594 14.365,10.3 C14.3811449,10.2388985 14.3686345,10.1737709 14.331,10.123 Z" id="Path"></path>
                                <path d="M7.209,3.809 C7.15073926,3.82965339 7.10439422,3.87470588 7.08210157,3.93235927 C7.05980892,3.99001267 7.06378918,4.05452428 7.093,4.109 L9.359,8.3 C9.39300204,8.36282891 9.45674,8.40393801 9.528,8.409 L14.272,8.776 C14.3339476,8.78095627 14.3949299,8.75835169 14.4386803,8.71421582 C14.4824307,8.67007994 14.5044995,8.60890177 14.499,8.547 C14.3565688,6.85320834 13.4389843,5.32043805 12.013332,4.39483966 C10.5876797,3.46924126 8.81416022,3.25482426 7.209,3.814 L7.209,3.809 Z" id="Path"></path>
                                <path d="M5.836,4.608 C5.7754036,4.59481868 5.71207961,4.60909403 5.663,4.647 C3.80132368,6.08474183 3.06002661,8.54723576 3.81862647,10.7737727 C4.57722632,13.0003096 6.66778059,14.4979679 9.02,14.5 C9.127,14.5 9.233,14.5 9.339,14.491 C9.4009218,14.4876545 9.45812155,14.4568546 9.495,14.407 C9.53205706,14.3575276 9.5459126,14.2944484 9.533,14.234 L8.426,9.253 C8.42173444,9.23388049 8.41501192,9.21539356 8.406,9.198 L5.978,4.714 C5.94851585,4.65954012 5.89659537,4.62078258 5.836,4.608 Z" id="Path"></path>
                                <circle id="Oval" cx="18.5" cy="5.5" r="1"></circle>
                                <circle id="Oval" cx="18.5" cy="8.5" r="1"></circle>
                                <circle id="Oval" cx="18.5" cy="11.5" r="1"></circle>
                            </g>
                        </g>
                    </g>
                </g>
            </g>
        </g>
    </g>
</svg>