<?xml version="1.0" encoding="UTF-8"?>
<svg width="24px" height="24px" viewBox="0 0 24 24" version="1.1" xmlns="http://www.w3.org/2000/svg" xmlns:xlink="http://www.w3.org/1999/xlink">
    <!-- Generator: sketchtool 53.2 (72643) - https://sketchapp.com -->
    <title>A637B943-0EC5-47FA-B650-2F32ABEA6A8A</title>
    <desc>Created with sketchtool.</desc>
    <g id="Page-1" stroke="none" stroke-width="1" fill="none" fill-rule="evenodd" opacity="0.35">
        <g id="01-Accueil" transform="translate(-25.000000, -109.000000)" fill="#AFA899">
            <g id="Bar_Latéral" transform="translate(0.000000, 74.000000)">
                <g id="Menu_Icon_Principal" transform="translate(25.000000, 35.000000)">
                    <g id="Pictos-Bar-latérale/TableaudeBord_OFF">
                        <g id="TableaudeBord">
                            <path d="M12,0 C5.372583,-4.05812251e-16 8.11624501e-16,5.372583 0,12 C-8.11624501e-16,18.627417 5.372583,24 12,24 C18.627417,24 24,18.627417 24,12 C23.9928352,5.37555305 18.624447,0.00716484761 12,0 Z M19.327,18.8 C14.7357946,16.4040146 9.26320541,16.4040146 4.672,18.8 C0.979022206,14.8234567 1.13171308,8.62720404 5.0160731,4.83738497 C8.90043313,1.0475659 15.0985669,1.0475659 18.9829269,4.83738497 C22.8672869,8.62720404 23.0199778,14.8234567 19.327,18.8 L19.327,18.8 Z" id="Shape" fill-rule="nonzero"></path>
                            <path d="M5.5,11.25 L4,11.25 C3.58578644,11.25 3.25,11.5857864 3.25,12 C3.25,12.4142136 3.58578644,12.75 4,12.75 L5.5,12.75 C5.91421356,12.75 6.25,12.4142136 6.25,12 C6.25,11.5857864 5.91421356,11.25 5.5,11.25 Z" id="Path"></path>
                            <path d="M6.97,5.91 C6.78302942,5.70934682 6.50144446,5.62675082 6.23571109,5.69461446 C5.96997772,5.7624781 5.7624781,5.96997772 5.69461446,6.23571109 C5.62675082,6.50144446 5.70934682,6.78302942 5.91,6.97 L6.97,8.03 C7.15697058,8.23065318 7.43855554,8.31324918 7.70428891,8.24538554 C7.97002228,8.1775219 8.1775219,7.97002228 8.24538554,7.70428891 C8.31324918,7.43855554 8.23065318,7.15697058 8.03,6.97 L6.97,5.91 Z" id="Path"></path>
                            <path d="M12,6.25 C12.4142136,6.25 12.75,5.91421356 12.75,5.5 L12.75,4 C12.75,3.58578644 12.4142136,3.25 12,3.25 C11.5857864,3.25 11.25,3.58578644 11.25,4 L11.25,5.5 C11.25,5.91421356 11.5857864,6.25 12,6.25 L12,6.25 Z" id="Path"></path>
                            <path d="M20,11.25 L18.5,11.25 C18.0857864,11.25 17.75,11.5857864 17.75,12 C17.75,12.4142136 18.0857864,12.75 18.5,12.75 L20,12.75 C20.4142136,12.75 20.75,12.4142136 20.75,12 C20.75,11.5857864 20.4142136,11.25 20,11.25 Z" id="Path"></path>
                            <path d="M18.354,6.646 C18.1916865,6.48372885 17.9397409,6.45280262 17.743,6.571 C17.054,6.985 10.99,10.637 10.232,11.395 C9.30273552,12.3273234 9.30273552,13.8356766 10.232,14.768 C11.1717842,15.6790319 12.6652158,15.6790319 13.605,14.768 C14.363,14.01 18.015,7.946 18.429,7.258 C18.5477266,7.06102918 18.5167761,6.80847293 18.354,6.646 Z" id="Path"></path>
                        </g>
                    </g>
                </g>
            </g>
        </g>
    </g>
</svg>