<?xml version="1.0" encoding="UTF-8"?>
<svg width="24px" height="24px" viewBox="0 0 24 24" version="1.1" xmlns="http://www.w3.org/2000/svg" xmlns:xlink="http://www.w3.org/1999/xlink">
    <!-- Generator: sketchtool 52.2 (67145) - http://www.bohemiancoding.com/sketch -->
    <title>2A653FD6-12A8-49F5-8BE4-A61E574DBA9E</title>
    <desc>Created with sketchtool.</desc>
    <g id="Page-1" stroke="none" stroke-width="1" fill="none" fill-rule="evenodd" opacity="0.349999994">
        <g id="01-Accueil" transform="translate(-25.000000, -332.000000)" fill="#AFA899">
            <g id="Bar_Latéral" transform="translate(0.000000, 74.000000)">
                <g id="Menu_Icon_Principal">
                    <g transform="translate(25.000000, 35.000000)">
                        <g id="Planning_OFF" transform="translate(0.000000, 223.000000)">
                            <g id="Planning">
                                <path d="M15.25,24 C18.8398509,24 21.75,21.0898509 21.75,17.5 C21.75,13.9101491 18.8398509,11 15.25,11 C11.6601491,11 8.75,13.9101491 8.75,17.5 C8.7544079,21.0880235 11.6619765,23.9955921 15.25,24 Z M14.5,13.5 C14.5,13.0857864 14.8357864,12.75 15.25,12.75 C15.6642136,12.75 16,13.0857864 16,13.5 L16,16.5 C16,16.6380712 16.1119288,16.75 16.25,16.75 L18.25,16.75 C18.6642136,16.75 19,17.0857864 19,17.5 C19,17.9142136 18.6642136,18.25 18.25,18.25 L15.25,18.25 C14.8357864,18.25 14.5,17.9142136 14.5,17.5 L14.5,13.5 Z" id="Shape" fill-rule="nonzero"></path>
                                <path d="M11.457,9.293 C11.0665001,8.90261806 10.4334999,8.90261806 10.043,9.293 L7.543,11.793 C7.15225854,12.1834653 7.15203468,12.8167585 7.5425,13.2075 C7.93296532,13.5982415 8.56625854,13.5984653 8.957,13.208 L11.457,10.708 C11.644777,10.5204317 11.7502867,10.2659092 11.7502867,10.0005 C11.7502867,9.73509075 11.644777,9.48056826 11.457,9.293 Z" id="Path"></path>
                                <path d="M20.457,9.293 C20.2042346,9.04041322 19.8359163,8.94186215 19.490787,9.03447002 C19.1456577,9.1270779 18.8761509,9.39677538 18.783787,9.74197003 C18.6914232,10.0871647 18.7902346,10.4554132 19.043,10.708 L21.543,13.208 C21.9337415,13.5984653 22.5670347,13.5982414 22.9575,13.2075 C23.3479653,12.8167585 23.3477414,12.1834653 22.957,11.793 L20.457,9.293 Z" id="Path"></path>
                                <path d="M19.75,0 L3.75,0 C2.09314575,-1.01453063e-16 0.75,1.34314575 0.75,3 L0.75,14.5 C0.75,16.1568542 2.09314575,17.5 3.75,17.5 L6.25,17.5 C6.80228475,17.5 7.25,17.0522847 7.25,16.5 C7.25,15.9477153 6.80228475,15.5 6.25,15.5 L3.75,15.5 C3.19771525,15.5 2.75,15.0522847 2.75,14.5 L2.75,5.25 C2.75,5.11192881 2.86192881,5 3,5 L20.5,5 C20.6380712,5 20.75,5.11192881 20.75,5.25 L20.75,8 C20.75,8.55228475 21.1977153,9 21.75,9 C22.3022847,9 22.75,8.55228475 22.75,8 L22.75,3 C22.75,1.34314575 21.4068542,1.01453063e-16 19.75,0 Z M4.5,3.5 C4.08578644,3.5 3.75,3.16421356 3.75,2.75 C3.75,2.33578644 4.08578644,2 4.5,2 C4.91421356,2 5.25,2.33578644 5.25,2.75 C5.25026586,2.94899375 5.1713336,3.13991369 5.03062365,3.28062365 C4.88991369,3.4213336 4.69899375,3.50026586 4.5,3.5 Z M7,3.5 C6.58578644,3.5 6.25,3.16421356 6.25,2.75 C6.25,2.33578644 6.58578644,2 7,2 C7.41421356,2 7.75,2.33578644 7.75,2.75 C7.75026586,2.94899375 7.6713336,3.13991369 7.53062365,3.28062365 C7.38991369,3.4213336 7.19899375,3.50026586 7,3.5 Z M9.5,3.5 C9.08578644,3.5 8.75,3.16421356 8.75,2.75 C8.75,2.33578644 9.08578644,2 9.5,2 C9.91421356,2 10.25,2.33578644 10.25,2.75 C10.2502659,2.94899375 10.1713336,3.13991369 10.0306236,3.28062365 C9.88991369,3.4213336 9.69899375,3.50026586 9.5,3.5 Z" id="Shape" fill-rule="nonzero"></path>
                            </g>
                        </g>
                    </g>
                </g>
            </g>
        </g>
    </g>
</svg>