<?xml version="1.0" encoding="UTF-8"?>
<svg width="24px" height="20px" viewBox="0 0 24 20" version="1.1" xmlns="http://www.w3.org/2000/svg" xmlns:xlink="http://www.w3.org/1999/xlink">
    <!-- Generator: sketchtool 53.2 (72643) - https://sketchapp.com -->
    <title>3DDA9279-EBB4-4FE6-8BCF-876B38E24430</title>
    <desc>Created with sketchtool.</desc>
    <g id="Page-1" stroke="none" stroke-width="1" fill="none" fill-rule="evenodd">
        <g id="00-Tab-Bar" transform="translate(-25.000000, -112.000000)">
            <g id="Bar_Latéral">
                <g id="Menu_Icon_Principal" transform="translate(25.000000, 35.000000)">
                    <g id="Pictos-Bar-latérale/Employés_ON" transform="translate(0.000000, 77.000000)">
                        <g id="Employés">
                            <path d="M24,19 C23.9955907,14.8596921 20.6403079,11.5044093 16.5,11.5 C15.6915181,11.5002717 14.8885449,11.6330308 14.123,11.893 C13.9598071,11.9474749 13.8360833,12.0820247 13.7954565,12.2492039 C13.7548298,12.4163831 13.8030071,12.5927072 13.923,12.716 C15.5736535,14.3911323 16.4992732,16.6482507 16.5,19 L16.5,19.024 C16.4981252,19.1495949 16.5467087,19.2706931 16.6348673,19.3601675 C16.7230259,19.4496419 16.8433911,19.500014 16.969,19.5 L23.5,19.5 C23.7761424,19.5 24,19.2761424 24,19 Z" id="Path" fill="#FF9B42"></path>
                            <path d="M13.675,3.53 C13.8077959,3.94052984 13.9012171,4.36276705 13.954,4.791 C13.9730607,4.95002112 14.0671466,5.09028723 14.2070483,5.16825225 C14.3469499,5.24621727 14.5157337,5.25244425 14.661,5.185 C15.327472,4.8759602 15.9301895,4.44486627 16.438,3.914 C16.4853274,3.86473933 16.5506882,3.83689652 16.619,3.83689652 C16.6873118,3.83689652 16.7526726,3.86473933 16.8,3.914 C17.4805227,4.62660583 18.3291616,5.1568332 19.268,5.456 C19.502228,5.53086768 19.6472481,5.76493514 19.61,6.008 C19.3808135,7.49370304 18.1032749,8.59085828 16.6,8.593 C15.7669115,8.59387938 14.9705895,8.25001308 14.4,7.643 C14.2818698,7.51824811 14.1079626,7.46288408 13.9394527,7.49638304 C13.7709427,7.52988199 13.6314337,7.64755167 13.57,7.808 C13.4534104,8.11240419 13.3140146,8.40757568 13.153,8.691 C13.0361976,8.89543378 13.0778463,9.15365591 13.253,9.311 C15.0850543,10.9603328 17.8472942,11.0236519 19.753,9.46 C19.8145599,9.40930042 19.8966145,9.39101307 19.9738776,9.41077346 C20.0511408,9.43053385 20.1143401,9.48597057 20.144,9.56 C20.2714472,9.89689673 20.432951,10.2199042 20.626,10.524 C20.8151994,10.834122 21.1577018,11.0172453 21.5206759,11.0023498 C21.8836501,10.9874543 22.2099963,10.7768832 22.3731491,10.4523016 C22.5363019,10.1277199 22.5105957,9.74018774 22.306,9.44 C21.8361591,8.65341325 21.6041486,7.74759996 21.638,6.832 L21.638,5.546 C21.6421155,3.56501059 20.4842351,1.76570433 18.6795657,0.948694991 C16.8748963,0.131685656 14.7588593,0.448825128 13.273,1.759 C13.0952618,1.91703457 13.0534436,2.17839831 13.173,2.384 C13.3811653,2.74678188 13.5494776,3.13101678 13.675,3.53 Z" id="Path" fill="#AFA899"></path>
                            <path d="M12.5,5.5 C12.5,2.73857625 10.2614237,0.5 7.5,0.5 C4.73857625,0.5 2.5,2.73857625 2.5,5.5 C2.5,8.26142375 4.73857625,10.5 7.5,10.5 C10.2600532,10.4966939 12.4966939,8.26005315 12.5,5.5 L12.5,5.5 Z M4.6,4.757 C4.64038085,4.6050643 4.74986903,4.48096778 4.8955897,4.42197156 C5.04131037,4.36297533 5.20629299,4.37595008 5.341,4.457 C6.4285322,5.13070465 7.68072931,5.49158931 8.96,5.5 C9.27096153,5.49940903 9.58146101,5.47601295 9.889,5.43 C10.0449893,5.40670437 10.2028259,5.45837458 10.3148413,5.56940568 C10.4268567,5.68043679 10.479918,5.83781113 10.458,5.994 C10.1981694,7.53055217 8.80513982,8.61231083 7.25210303,8.48354275 C5.69906625,8.35477468 4.50321963,7.05836264 4.5,5.5 C4.50036566,5.24900332 4.5339917,4.99916187 4.6,4.757 Z" id="Shape" fill="#AFA899" fill-rule="nonzero"></path>
                            <path d="M15,19 C15,14.8578644 11.6421356,11.5 7.5,11.5 C3.35786438,11.5 5.07265313e-16,14.8578644 0,19 C3.38176876e-17,19.2761424 0.223857625,19.5 0.5,19.5 L14.5,19.5 C14.7761424,19.5 15,19.2761424 15,19 Z" id="Path" fill="#385FE3"></path>
                        </g>
                    </g>
                </g>
            </g>
        </g>
    </g>
</svg>