<?xml version="1.0" encoding="UTF-8"?>
<svg width="24px" height="24px" viewBox="0 0 24 24" version="1.1" xmlns="http://www.w3.org/2000/svg" xmlns:xlink="http://www.w3.org/1999/xlink">
    <!-- Generator: sketchtool 53.2 (72643) - https://sketchapp.com -->
    <title>086D0F69-8F46-4EF3-894D-0B8FA6ACBA45</title>
    <desc>Created with sketchtool.</desc>
    <g id="Page-1" stroke="none" stroke-width="1" fill="none" fill-rule="evenodd" stroke-linecap="round" stroke-linejoin="round">
        <g id="01-Accueil" transform="translate(-25.000000, -689.000000)" stroke="#AFA899">
            <g id="Bar_Latéral" transform="translate(0.000000, 74.000000)">
                <g id="Menu_Icon_Secondaire">
                    <g id="Ico_Restaurant" transform="translate(25.000000, 616.000000)">
                        <g id="Restaurant">
                            <path d="M11.25,16.25 L8.05,12.916 C7.47579973,12.3394295 7.33482973,11.4601796 7.7,10.733 L7.7,10.733 C7.9716435,10.1892289 8.48824073,9.80929298 9.08825009,9.71199952 C9.68825945,9.61470606 10.2984451,9.81193045 10.728,10.242 L11.25,10.764 L11.772,10.242 C12.2015549,9.81193045 12.8117406,9.61470606 13.4117499,9.71199952 C14.0117593,9.80929298 14.5283565,10.1892289 14.8,10.733 L14.8,10.733 C15.1641513,11.4610134 15.0215528,12.340371 14.446,12.916 L11.25,16.25 Z" id="Path" stroke-width="1.5"></path>
                            <path d="M2.25,8 L2.25,21.5" id="Path" stroke-width="1.5"></path>
                            <path d="M20.247,14 L22.5,14 C22.9134338,14.0000015 23.2488975,13.6654323 23.25,13.252 C23.258,9.421 23.278,4.794 21.691,0.963 C21.554146,0.632310719 21.2027107,0.444388847 20.8516972,0.514202344 C20.5006837,0.584015841 20.2479018,0.892111196 20.248,1.25 L20.248,21.5" id="Path" stroke-width="1.5"></path>
                            <path d="M0.75,0.5 L0.75,6.5 C0.75,7.32842712 1.42157288,8 2.25,8 L2.25,8 C3.07842712,8 3.75,7.32842712 3.75,6.5 L3.75,0.5" id="Path" stroke-width="1.5"></path>
                            <path d="M16.5,7.565 C15.1426325,6.10832409 13.2410679,5.28108299 11.25,5.28108299 C9.25893213,5.28108299 7.35736751,6.10832409 6,7.565" id="Path" stroke-width="1.5"></path>
                            <path d="M6,17.435 C7.35736751,18.8916759 9.25893213,19.718917 11.25,19.718917 C13.2410679,19.718917 15.1426325,18.8916759 16.5,17.435" id="Path" stroke-width="1.5"></path>
                        </g>
                    </g>
                </g>
            </g>
        </g>
    </g>
</svg>