<?xml version="1.0" encoding="UTF-8"?>
<svg width="22px" height="24px" viewBox="0 0 22 24" version="1.1" xmlns="http://www.w3.org/2000/svg" xmlns:xlink="http://www.w3.org/1999/xlink">
    <!-- Generator: sketchtool 53.2 (72643) - https://sketchapp.com -->
    <title>13954AEA-BC92-4BF3-9AC5-FB415836DD8F</title>
    <desc>Created with sketchtool.</desc>
    <g id="Page-1" stroke="none" stroke-width="1" fill="none" fill-rule="evenodd">
        <g id="00-Tab-Bar" transform="translate(-26.000000, -406.000000)">
            <g id="Bar_Latéral">
                <g id="Menu_Icon_Principal" transform="translate(25.000000, 35.000000)">
                    <g id="Pictos-Bar-latérale/Pointeuse_ON" transform="translate(1.000000, 371.000000)">
                        <g id="Pointeuse">
                            <path d="M19.25,4 C19.25,3.58578644 18.9142136,3.25 18.5,3.25 L12.5,3.25 C12.0857864,3.25 11.75,3.58578644 11.75,4 C11.75,4.41421356 12.0857864,4.75 12.5,4.75 L18.5,4.75 C18.6989938,4.75026586 18.8899137,4.6713336 19.0306236,4.53062365 C19.1713336,4.38991369 19.2502659,4.19899375 19.25,4 L19.25,4 Z" id="Path" fill="#385FE3"></path>
                            <path d="M18.5,6.25 L15.5,6.25 C15.0857864,6.25 14.75,6.58578644 14.75,7 C14.75,7.41421356 15.0857864,7.75 15.5,7.75 L18.5,7.75 C18.9142136,7.75 19.25,7.41421356 19.25,7 C19.25,6.58578644 18.9142136,6.25 18.5,6.25 L18.5,6.25 Z" id="Path" fill="#385FE3"></path>
                            <path d="M6.75,3 C4.95507456,3 3.5,4.45507456 3.5,6.25 C3.5,8.04492544 4.95507456,9.5 6.75,9.5 C8.54492544,9.5 10,8.04492544 10,6.25 C9.99779605,4.45598826 8.54401174,3.00220395 6.75,3 Z M6.75,8 C5.78350169,8 5,7.21649831 5,6.25 C5,5.28350169 5.78350169,4.5 6.75,4.5 C7.71649831,4.5 8.5,5.28350169 8.5,6.25 C8.49889784,7.21604141 7.71604141,7.99889784 6.75,8 Z" id="Shape" fill="#FF9B42" fill-rule="nonzero"></path>
                            <path d="M12.25,24 L18.75,24 C18.8880712,24 19,23.8880712 19,23.75 L19,19.523 C18.9985161,19.5080367 18.9985161,19.4929633 19,19.478 L19.782,15.178 C19.8018785,15.0736474 19.89378,14.9986086 20,15 C21.1000487,14.9891613 21.9891613,14.1000487 22,13 L22,2 C22,0.8954305 21.1045695,6.76353751e-17 20,0 L2,0 C0.8954305,-6.76353751e-17 2.22044605e-16,0.8954305 0,2 L0,13 C2.22044605e-16,14.1045695 0.8954305,15 2,15 L5.793,15 C5.8608016,14.9996834 5.92580034,15.0270295 5.97298297,15.0757219 C6.0201656,15.1244144 6.04545143,15.190242 6.043,15.258 C6.022,15.993 6,16.89 6,17.5 C6,18.618 7.368,18.817 8,18.5 C8.68388571,18.0563968 9.22167361,17.4208609 9.546,16.673 C9.55329864,16.6576257 9.55899532,16.6415409 9.563,16.625 L9.922,15.189 C9.95000695,15.0776855 10.0502165,14.9997447 10.165,15 L10.68,15 C10.756866,15.0006082 10.8292511,15.0362662 10.8765784,15.0968374 C10.9239058,15.1574086 10.9409994,15.2362687 10.923,15.311 L10.5,17 C10.2336226,17.9822608 10.2336226,19.0177392 10.5,20 C10.8891276,20.7037545 11.3703694,21.3524725 11.931,21.929 C11.9750358,21.9750695 11.9997308,22.0362702 12,22.1 L12,23.75 C12,23.8880712 12.1119288,24 12.25,24 Z M11,10.542 L11,12.75 C11.0002671,12.8163857 10.9740137,12.8801295 10.9270716,12.9270716 C10.8801295,12.9740137 10.8163857,13.0002671 10.75,13 L2.5,13 C2.22385763,13 2,12.7761424 2,12.5 L2,2.5 C2,2.22385763 2.22385763,2 2.5,2 L19.5,2 C19.7761424,2 20,2.22385763 20,2.5 L20,12.5 C20,12.7761424 19.7761424,13 19.5,13 L15.25,13 C15.1836143,13.0002671 15.1198705,12.9740137 15.0729284,12.9270716 C15.0259863,12.8801295 14.9997329,12.8163857 15,12.75 L15,10.542 C15,10.042 15,8 13,8 C11,8 11,10.042 11,10.542 Z" id="Shape" fill="#AFA899" fill-rule="nonzero"></path>
                        </g>
                    </g>
                </g>
            </g>
        </g>
    </g>
</svg>