<?xml version="1.0" encoding="UTF-8"?>
<svg width="24px" height="24px" viewBox="0 0 24 24" version="1.1" xmlns="http://www.w3.org/2000/svg" xmlns:xlink="http://www.w3.org/1999/xlink">
    <!-- Generator: sketchtool 52.2 (67145) - http://www.bohemiancoding.com/sketch -->
    <title>696662C8-F40A-4B6C-9F71-685AB13B90E4</title>
    <desc>Created with sketchtool.</desc>
    <g id="Page-1" stroke="none" stroke-width="1" fill="none" fill-rule="evenodd" opacity="0.349999994">
        <g id="01-Accueil" transform="translate(-25.000000, -259.000000)" fill="#AFA899">
            <g id="Bar_Latéral" transform="translate(0.000000, 74.000000)">
                <g id="Menu_Icon_Principal">
                    <g transform="translate(25.000000, 35.000000)">
                        <g id="Prévisions_OFF" transform="translate(0.000000, 150.000000)">
                            <g id="Prévisions">
                                <path d="M2,17.865 C1.44771525,17.865 1,18.3127153 1,18.865 L1,20.365 C0.999732851,20.4313857 1.02598627,20.4951295 1.0729284,20.5420716 C1.11987053,20.5890137 1.18361434,20.6152671 1.25,20.615 L4.75,20.615 C4.81638566,20.6152671 4.88012947,20.5890137 4.9270716,20.5420716 C4.97401373,20.4951295 5.00026715,20.4313857 5,20.365 L5,18.865 C5,18.3127153 4.55228475,17.865 4,17.865 L2,17.865 Z" id="Path"></path>
                                <path d="M8,14.865 C7.44771525,14.865 7,15.3127153 7,15.865 L7,20.365 C6.99973285,20.4313857 7.02598627,20.4951295 7.0729284,20.5420716 C7.11987053,20.5890137 7.18361434,20.6152671 7.25,20.615 L10.75,20.615 C10.8163857,20.6152671 10.8801295,20.5890137 10.9270716,20.5420716 C10.9740137,20.4951295 11.0002671,20.4313857 11,20.365 L11,15.865 C11,15.3127153 10.5522847,14.865 10,14.865 L8,14.865 Z" id="Path"></path>
                                <path d="M14,11.365 C13.4477153,11.365 13,11.8127153 13,12.365 L13,20.365 C12.9997329,20.4313857 13.0259863,20.4951295 13.0729284,20.5420716 C13.1198705,20.5890137 13.1836143,20.6152671 13.25,20.615 L16.75,20.615 C16.8163857,20.6152671 16.8801295,20.5890137 16.9270716,20.5420716 C16.9740137,20.4951295 17.0002671,20.4313857 17,20.365 L17,12.365 C17,11.8127153 16.5522847,11.365 16,11.365 L14,11.365 Z" id="Path"></path>
                                <path d="M19.25,20.615 L22.75,20.615 C22.8163857,20.6152671 22.8801295,20.5890137 22.9270716,20.5420716 C22.9740137,20.4951295 23.0002671,20.4313857 23,20.365 L23,8.365 C23,7.81271525 22.5522847,7.365 22,7.365 L20,7.365 C19.4477153,7.365 19,7.81271525 19,8.365 L19,20.365 C18.9997329,20.4313857 19.0259863,20.4951295 19.0729284,20.5420716 C19.1198705,20.5890137 19.1836143,20.6152671 19.25,20.615 Z" id="Path"></path>
                                <path d="M18.069,4.207 L18.376,4.667 C18.5154385,4.87513051 18.7494777,5.00002646 19,5 L19.025,5 C19.2849159,4.99136373 19.5218072,4.84869917 19.651,4.623 L21.651,1.123 C21.7916966,0.876351633 21.7812491,0.571439567 21.624,0.335 C21.4676688,0.0972236477 21.1891226,-0.0302005459 20.907,0.007 L16.907,0.507 C16.6488561,0.538755501 16.4256663,0.702155586 16.317411,0.93864546 C16.2091557,1.17513533 16.2313347,1.45085512 16.376,1.667 L16.683,2.127 C16.7590879,2.24223021 16.72781,2.39727946 16.613,2.474 L2.445,11.919 C1.98549909,12.225518 1.86148196,12.8464991 2.168,13.306 C2.47451804,13.7655009 3.09549909,13.889518 3.555,13.583 L17.723,4.138 C17.7779943,4.10114052 17.8454033,4.08769926 17.9103291,4.10064688 C17.9752548,4.1135945 18.0323514,4.15186492 18.069,4.207 Z" id="Path"></path>
                                <path d="M1,24 L23,24 C23.5522847,24 24,23.5522847 24,23 C24,22.4477153 23.5522847,22 23,22 L1,22 C0.44771525,22 6.76353751e-17,22.4477153 0,23 C-6.76353751e-17,23.5522847 0.44771525,24 1,24 Z" id="Path"></path>
                            </g>
                        </g>
                    </g>
                </g>
            </g>
        </g>
    </g>
</svg>