<?xml version="1.0" encoding="UTF-8"?>
<svg width="150px" height="34px" viewBox="0 0 150 34" version="1.1" xmlns="http://www.w3.org/2000/svg" xmlns:xlink="http://www.w3.org/1999/xlink">
    <!-- Generator: sketchtool 53.2 (72643) - https://sketchapp.com -->
    <title>74095FE8-81D4-457B-8DB8-4091B084FFB1</title>
    <desc>Created with sketchtool.</desc>
    <g id="Page-1" stroke="none" stroke-width="1" fill="none" fill-rule="evenodd">
        <g id="03-Accueil-Open" transform="translate(-20.000000, -20.000000)">
            <g id="Logo_MyRHIS_big" transform="translate(20.000000, 20.000000)">
                <g>
                    <path d="M9.85012793,26.4620846 C9.70073506,26.254074 9.56457137,26.0480429 9.43695824,25.8434964 C9.78946732,26.0478779 10.1958611,26.165987 10.6298425,26.165987 C11.9687317,26.165987 13.054008,25.0561573 13.054008,23.6873453 C13.054008,22.3183683 11.9687317,21.2085386 10.6298425,21.2085386 C9.50213612,21.2085386 8.55705684,21.9971973 8.28618143,23.0634785 C7.08716654,17.1463111 14.3235247,13.3333333 14.3235247,13.3333333 C14.3235247,13.3333333 0.323025367,15.3590035 1.39152316,24.2335175 C1.64126415,26.30752 2.69088617,28.1827496 4.21627446,29.5733359 C13.1446762,37.7121422 26.6666667,32.1370953 26.6666667,32.1370953 C26.6666667,32.1370953 14.6548994,33.1535595 9.85012793,26.4620846" id="Fill-1" fill="#385FE3"></path>
                    <path d="M27.8247487,20.8955047 C27.8467349,20.4896892 27.7689749,20.0730282 27.5753025,19.6830762 C26.9777958,18.4803601 25.5195947,17.9902088 24.318438,18.5884913 C23.1172812,19.1867737 22.6279271,20.646706 23.2254338,21.8494221 C23.728691,22.862585 24.8422264,23.3669811 25.899018,23.1442439 C21.2418278,26.8075909 14.6666667,21.973093 14.6666667,21.973093 C14.6666667,21.973093 22.6921073,33.6651771 30.0025121,28.8269561 C31.710806,27.6964354 32.8880366,25.9336388 33.4273446,23.9557131 C36.5844631,12.3779113 25.65814,2.66666667 25.65814,2.66666667 C25.65814,2.66666667 31.9106215,13.0134246 28.1831557,20.254164 C28.0672433,20.4793293 27.9472893,20.6915448 27.8247487,20.8955047 Z" id="Fill-4" fill="#AFA899"></path>
                    <path d="M13.5117561,6.71406139 C13.7623516,6.69421798 14.004112,6.68477636 14.2404107,6.68141578 C13.8865249,6.87440894 13.5758507,7.15701748 13.3483871,7.52300035 C12.6467197,8.6521543 12.9969108,10.1341689 14.1303736,10.8331689 C15.2638363,11.532009 16.7515061,11.1833091 17.4531735,10.0541551 C18.0441613,9.10295174 17.8864146,7.90322566 17.1453909,7.13029289 C22.6735919,9.14023814 22.0385893,17.1902609 22.0385893,17.1902609 C22.0385893,17.1902609 27.6981923,4.34773492 19.789816,0.717671381 C17.9416741,-0.130474307 15.8387602,-0.202806732 13.8879706,0.373772308 C2.46997208,3.74875204 0,18 0,18 C0,18 5.45302238,7.35001063 13.5117561,6.71406139" id="Fill-7" fill="#FF9B42"></path>
                    <g id="MyRHIS" transform="translate(54.000000, 11.000000)">
                        <polygon id="Path-3" fill="#FF9B42" points="0.0563151042 0.312174479 2.8531901 0.312174479 7.71809896 6.05501302 12.8730469 0.312174479 15.6946615 0.312174479 15.6946615 13.6435547 12.8730469 13.6435547 12.8730469 4.01269531 7.71809896 9.84049479 2.8531901 4.01269531 2.8531901 13.6435547 0.0563151042 13.6435547"></polygon>
                        <path d="M19.5657552,2.94075521 L22.2093099,2.94075521 L22.2093099,11.1930339 L28.405599,11.1930339 L28.405599,2.94075521 L30.9202474,2.94075521 L30.9202474,14.9244792 C30.9202474,16.5813334 29.5771016,17.9244792 27.9202474,17.9244792 L21.5195312,17.9244792 L21.5195312,15.6380208 L28.405599,15.6380208 L28.405599,13.6774089 L22.5657552,13.6774089 C20.908901,13.6774089 19.5657552,12.3342631 19.5657552,10.6774089 L19.5657552,2.94075521 Z" id="Path-4" fill="#FF9B42"></path>
                        <path d="M36.5078125,0.338867187 L47.1735026,0.338867187 C48.8303569,0.338867187 50.1735026,1.68201294 50.1735026,3.33886719 L50.1735026,6.14648438 C50.1735026,7.80333862 48.8303569,9.14648438 47.1735026,9.14648438 L46.8473307,9.14648438 L50.8151042,13.8264974 L47.7089844,13.8264974 L43.7001953,9.14648438 L39.116862,9.14648438 L39.116862,13.8264974 L36.5078125,13.8264974 L36.5078125,0.338867187 Z M39.1292318,2.79101562 L39.1292318,6.6953125 L47.6035156,6.6953125 L47.6035156,2.79101562 L39.1292318,2.79101562 Z" id="Combined-Shape" fill="#385FE3"></path>
                        <polygon id="Path-7" fill="#385FE3" points="55.813151 0.296223958 58.3320312 0.296223958 58.3320312 5.86751302 67.2483724 5.86751302 67.2483724 0.296223958 69.813151 0.296223958 69.813151 13.8251953 67.2483724 13.8251953 67.2483724 8.21744792 58.3320312 8.21744792 58.3320312 13.8251953 55.813151 13.8251953"></polygon>
                        <polygon id="Path-8" fill="#385FE3" points="74.9199219 0.391601563 77.4414062 0.391601563 77.4414062 13.8085938 74.9199219 13.8085938"></polygon>
                        <path d="M95.9466146,3.91536458 L93.5810547,3.91536458 L93.5810547,2.80729167 L84.8310547,2.80729167 L84.8310547,5.78678385 L92.9466146,5.78678385 C94.6034688,5.78678385 95.9466146,7.1299296 95.9466146,8.78678385 L95.9466146,10.8085938 C95.9466146,12.465448 94.6034688,13.8085938 92.9466146,13.8085938 L85.4033203,13.8085937 C83.7464661,13.8085937 82.4033203,12.465448 82.4033203,10.8085938 L82.4033203,10.1936849 L84.8310547,10.1936849 L84.8310547,11.3792318 L93.5810547,11.3792318 L93.5810547,8.30794271 L85.4033203,8.30794271 C83.7464661,8.30794271 82.4033203,6.96479696 82.4033203,5.30794271 L82.4033203,3.26074219 C82.4033203,1.60388794 83.7464661,0.260742187 85.4033203,0.260742187 L92.9466146,0.260742187 C94.6034688,0.260742187 95.9466146,1.60388794 95.9466146,3.26074219 L95.9466146,3.91536458 Z" id="Path-9" fill="#385FE3"></path>
                    </g>
                </g>
            </g>
        </g>
    </g>
</svg>