<?xml version="1.0" encoding="UTF-8"?>
<svg width="34px" height="34px" viewBox="0 0 34 34" version="1.1" xmlns="http://www.w3.org/2000/svg" xmlns:xlink="http://www.w3.org/1999/xlink">
    <!-- Generator: sketchtool 52.2 (67145) - http://www.bohemiancoding.com/sketch -->
    <title>ECC47F47-919E-4940-AE02-35DFC8C4CF83</title>
    <desc>Created with sketchtool.</desc>
    <g id="Page-1" stroke="none" stroke-width="1" fill="none" fill-rule="evenodd">
        <g id="01-Accueil" transform="translate(-20.000000, -20.000000)">
            <g id="Logo">
                <g id="Logo_MyRHIS" transform="translate(20.000000, 20.000000)">
                    <path d="M9.85012793,26.4620846 C9.70073506,26.254074 9.56457137,26.0480429 9.43695824,25.8434964 C9.78946732,26.0478779 10.1958611,26.165987 10.6298425,26.165987 C11.9687317,26.165987 13.054008,25.0561573 13.054008,23.6873453 C13.054008,22.3183683 11.9687317,21.2085386 10.6298425,21.2085386 C9.50213612,21.2085386 8.55705684,21.9971973 8.28618143,23.0634785 C7.08716654,17.1463111 14.3235247,13.3333333 14.3235247,13.3333333 C14.3235247,13.3333333 0.323025367,15.3590035 1.39152316,24.2335175 C1.64126415,26.30752 2.69088617,28.1827496 4.21627446,29.5733359 C13.1446762,37.7121422 26.6666667,32.1370953 26.6666667,32.1370953 C26.6666667,32.1370953 14.6548994,33.1535595 9.85012793,26.4620846" id="Fill-1" fill="#385FE3"></path>
                    <path d="M27.8247487,20.8955047 C27.8467349,20.4896892 27.7689749,20.0730282 27.5753025,19.6830762 C26.9777958,18.4803601 25.5195947,17.9902088 24.318438,18.5884913 C23.1172812,19.1867737 22.6279271,20.646706 23.2254338,21.8494221 C23.728691,22.862585 24.8422264,23.3669811 25.899018,23.1442439 C21.2418278,26.8075909 14.6666667,21.973093 14.6666667,21.973093 C14.6666667,21.973093 22.6921073,33.6651771 30.0025121,28.8269561 C31.710806,27.6964354 32.8880366,25.9336388 33.4273446,23.9557131 C36.5844631,12.3779113 25.65814,2.66666667 25.65814,2.66666667 C25.65814,2.66666667 31.9106215,13.0134246 28.1831557,20.254164 C28.0672433,20.4793293 27.9472893,20.6915448 27.8247487,20.8955047 Z" id="Fill-4" fill="#AFA899"></path>
                    <path d="M13.5117561,6.71406139 C13.7623516,6.69421798 14.004112,6.68477636 14.2404107,6.68141578 C13.8865249,6.87440894 13.5758507,7.15701748 13.3483871,7.52300035 C12.6467197,8.6521543 12.9969108,10.1341689 14.1303736,10.8331689 C15.2638363,11.532009 16.7515061,11.1833091 17.4531735,10.0541551 C18.0441613,9.10295174 17.8864146,7.90322566 17.1453909,7.13029289 C22.6735919,9.14023814 22.0385893,17.1902609 22.0385893,17.1902609 C22.0385893,17.1902609 27.6981923,4.34773492 19.789816,0.717671381 C17.9416741,-0.130474307 15.8387602,-0.202806732 13.8879706,0.373772308 C2.46997208,3.74875204 0,18 0,18 C0,18 5.45302238,7.35001063 13.5117561,6.71406139" id="Fill-7" fill="#FF9B42"></path>
                </g>
            </g>
        </g>
    </g>
</svg>