<?xml version="1.0" encoding="UTF-8"?>
<svg width="24px" height="24px" viewBox="0 0 24 24" version="1.1" xmlns="http://www.w3.org/2000/svg" xmlns:xlink="http://www.w3.org/1999/xlink">
    <!-- Generator: sketchtool 52.2 (67145) - http://www.bohemiancoding.com/sketch -->
    <title>52CE5350-07BD-41B6-93C0-95C08B2EEB30</title>
    <desc>Created with sketchtool.</desc>
    <g id="Page-1" stroke="none" stroke-width="1" fill="none" fill-rule="evenodd">
        <g id="01-Accueil" transform="translate(-787.000000, -624.000000)">
            <g id="Contenu" transform="translate(74.000000, 74.000000)">
                <g id="Anomalies-sociales" transform="translate(693.000000, 399.000000)">
                    <g id="3" transform="translate(20.000000, 151.000000)">
                        <g id="Ico_Time">
                            <circle id="Oval-Copy-2" fill="#385FE3" cx="12" cy="12" r="12"></circle>
                            <g id="time-clock-circle" transform="translate(6.000000, 6.000000)" fill="#FFFFFF" fill-rule="nonzero">
                                <path d="M6,0 C2.6862915,-2.02906125e-16 4.05812251e-16,2.6862915 0,6 C-4.05812251e-16,9.3137085 2.6862915,12 6,12 C9.3137085,12 12,9.3137085 12,6 C11.9964176,2.68777652 9.31222348,0.00358242381 6,0 Z M8.6,8.6105 C8.41152904,8.80996156 8.09871705,8.82368721 7.8935,8.6415 L5.414,6.3685 C5.31001619,6.27414335 5.25049943,6.14041211 5.25,6 L5.25,3.25 C5.25,2.97385763 5.47385763,2.75 5.75,2.75 C6.02614237,2.75 6.25,2.97385763 6.25,3.25 L6.25,5.78 L8.567,7.904 C8.66524216,7.99331157 8.72392829,8.11803003 8.73011877,8.25065641 C8.73630925,8.38328278 8.68949571,8.51292556 8.6,8.611 L8.6,8.6105 Z" id="Shape"></path>
                            </g>
                        </g>
                    </g>
                </g>
            </g>
        </g>
    </g>
</svg>