<?xml version="1.0" encoding="UTF-8"?>
<svg width="28px" height="28px" viewBox="0 0 28 28" version="1.1" xmlns="http://www.w3.org/2000/svg" xmlns:xlink="http://www.w3.org/1999/xlink">
    <!-- Generator: sketchtool 53.2 (72643) - https://sketchapp.com -->
    <title>E8456683-5C81-405C-A7E1-C2F36B85E7D4</title>
    <desc>Created with sketchtool.</desc>
    <g id="Page-1" stroke="none" stroke-width="1" fill="none" fill-rule="evenodd">
        <g id="20-Prévisions" transform="translate(-788.000000, -809.000000)">
            <g id="Contenu" transform="translate(74.000000, 74.000000)">
                <g id="Bloc-Heures-complémentaires" transform="translate(35.000000, 513.000000)">
                    <g id="01" transform="translate(35.000000, 206.000000)">
                        <g id="Ico_Message" transform="translate(644.000000, 16.000000)">
                            <path d="M14,0 C6.2680135,-4.73447626e-16 9.46895252e-16,6.2680135 0,14 C-9.46895252e-16,21.7319865 6.2680135,28 14,28 C21.7319865,28 28,21.7319865 28,14 C27.991641,6.27147856 21.7285214,0.00835898888 14,0 Z" id="Shape" fill="#AFA899"></path>
                            <path d="M20.0869565,9 L7.91304348,9 C7.40878349,9 7,9.41573205 7,9.92856351 L7,18.3178253 C7.00170569,18.560644 7.0994802,18.7925358 7.27126479,18.9611839 C7.44304937,19.1298321 7.67437168,19.2210286 7.91304348,19.2141987 L9.73913043,19.2141987 L9.73913043,21.690368 C9.73909018,21.805566 9.80195968,21.9112558 9.90231006,21.964689 C10.0026604,22.0181222 10.1238868,22.0104573 10.2169565,21.9447944 L14.0949565,19.2141987 L20.0869565,19.2141987 C20.5912165,19.2141987 21,18.7984666 21,18.2856351 L21,9.92856351 C21,9.41573205 20.5912165,9 20.0869565,9 Z M18,14 C18,14.5522847 17.5522847,15 17,15 C16.4477153,15 16,14.5522847 16,14 C16,13.4477153 16.4477153,13 17,13 C17.5522847,13 18,13.4477153 18,14 Z M10,14 C10,13.4477153 10.4477153,13 11,13 C11.5522847,13 12,13.4477153 12,14 C12,14.5522847 11.5522847,15 11,15 C10.4477153,15 10,14.5522847 10,14 Z M13,14 C13,13.4477153 13.4477153,13 14,13 C14.5522847,13 15,13.4477153 15,14 C15,14.5522847 14.5522847,15 14,15 C13.4477153,15 13,14.5522847 13,14 Z" id="Shape" fill="#FFFFFF" fill-rule="nonzero"></path>
                        </g>
                    </g>
                </g>
            </g>
        </g>
    </g>
</svg>