<?xml version="1.0" encoding="UTF-8"?>
<svg width="14px" height="14px" viewBox="0 0 14 14" version="1.1" xmlns="http://www.w3.org/2000/svg" xmlns:xlink="http://www.w3.org/1999/xlink">
    <!-- Generator: sketchtool 53.2 (72643) - https://sketchapp.com -->
    <title>D64605F1-DE65-4C49-9702-63296D6E2341</title>
    <desc>Created with sketchtool.</desc>
    <g id="Page-1" stroke="none" stroke-width="1" fill="none" fill-rule="evenodd">
        <g id="17-Planning-Plannings-fixes" transform="translate(-1007.000000, -402.000000)" fill="#FFFFFF">
            <g id="Contenu" transform="translate(74.000000, 74.000000)">
                <g id="Tableau" transform="translate(35.000000, 127.000000)">
                    <g id="Employé-1" transform="translate(20.000000, 99.000000)">
                        <g id="Poste-Fermeture" transform="translate(865.000000, 55.000000)">
                            <g id="Ico_Clock" transform="translate(13.000000, 47.000000)">
                                <path d="M7,7.78062799e-16 C3.13400675,5.41338986e-16 4.73447626e-16,3.13400675 0,7 C-4.73447626e-16,10.8659932 3.13400675,14 7,14 C10.8659932,14 14,10.8659932 14,7 C13.9954997,3.13587236 10.8641276,0.00450027801 7,7.78062799e-16 Z M7,12.8333333 C3.77833896,12.8333333 1.16666667,10.221661 1.16666667,7 C1.16666667,3.77833896 3.77833896,1.16666667 7,1.16666667 C10.221661,1.16666667 12.8333333,3.77833896 12.8333333,7 C12.829797,10.2201951 10.2201951,12.829797 7,12.8333333 L7,12.8333333 Z" id="Shape" fill-rule="nonzero"></path>
                                <path d="M9.86983369,9.01416667 L7.16666702,6.53558333 L7.16666702,3.58333333 C7.16666702,3.26116723 6.90549979,3 6.58333369,3 C6.26116758,3 6.00000035,3.26116723 6.00000035,3.58333333 L6.00000035,6.79166667 C5.99982068,6.95532584 6.06839948,7.1115331 6.18900035,7.22216667 L9.08175035,9.87341667 C9.32034369,10.0880029 9.68678784,10.0721833 9.90600035,9.83783333 C10.123265,9.60032513 10.1070797,9.2317176 9.86983369,9.01416667 L9.86983369,9.01416667 Z" id="Path"></path>
                            </g>
                        </g>
                    </g>
                </g>
            </g>
        </g>
    </g>
</svg>