<?xml version="1.0" encoding="UTF-8"?>
<svg width="28px" height="28px" viewBox="0 0 28 28" version="1.1" xmlns="http://www.w3.org/2000/svg" xmlns:xlink="http://www.w3.org/1999/xlink">
    <!-- Generator: sketchtool 53.2 (72643) - https://sketchapp.com -->
    <title>6177356E-B227-4AA9-8F78-B066F3C65CC0</title>
    <desc>Created with sketchtool.</desc>
    <g id="Page-1" stroke="none" stroke-width="1" fill="none" fill-rule="evenodd">
        <g id="13-Planning-Semaine52" transform="translate(-1085.000000, -206.000000)">
            <g id="Contenu" transform="translate(74.000000, 74.000000)">
                <g id="icones" transform="translate(1011.000000, 132.000000)">
                    <g id="delete">
                        <g>
                            <path d="M14,0 C6.2680135,-4.73447626e-16 9.46895252e-16,6.2680135 0,14 C-9.46895252e-16,21.7319865 6.2680135,28 14,28 C21.7319865,28 28,21.7319865 28,14 C27.991641,6.27147856 21.7285214,0.00835898888 14,0 Z" id="Path" fill="#AFA899"></path>
                            <g id="single-neutral-actions-add" transform="translate(6.000000, 6.000000)" fill="#FFFFFF">
                                <path d="M7.486,8.16066667 C7.55190839,8.08523824 7.58040294,7.98416962 7.56360038,7.88542227 C7.54679782,7.78667493 7.48647963,7.70071842 7.39933333,7.65133333 C6.65986019,7.22752323 5.82297297,7.00308216 4.97066667,7 C2.76319844,7.01004416 0.820386027,8.45856832 0.180666667,10.5713333 C0.150558698,10.6722087 0.169872595,10.7813784 0.232762735,10.8658009 C0.295652874,10.9502234 0.394727395,10.9999758 0.5,11 L5.92666667,11 C6.08787135,10.9999951 6.22597223,10.8846303 6.25466667,10.726 C6.42453323,9.77493628 6.85020941,8.88809169 7.486,8.16066667 L7.486,8.16066667 Z" id="Path"></path>
                                <circle id="Oval" cx="4.83333333" cy="3.16666667" r="3.16666667"></circle>
                                <path d="M7.16666667,11.6666667 C7.16666667,14.0599006 9.10676608,16 11.5,16 C13.8932339,16 15.8333333,14.0599006 15.8333333,11.6666667 C15.8303947,9.27465102 13.8920157,7.33627193 11.5,7.33333333 C9.10676608,7.33333333 7.16666667,9.27343275 7.16666667,11.6666667 Z M13.8333333,12.3333333 L12.5,12.3333333 C12.3159051,12.3333333 10.6840949,12.3333333 10.5,12.3333333 L9.16666667,12.3333333 C8.79847683,12.3333333 8.5,12.0348565 8.5,11.6666667 C8.5,11.2984768 8.79847683,11 9.16666667,11 L10.5,11 C10.6840949,11 12.3159051,11 12.5,11 L13.8333333,11 C14.2015232,11 14.5,11.2984768 14.5,11.6666667 C14.5,12.0348565 14.2015232,12.3333333 13.8333333,12.3333333 Z" id="Shape" fill-rule="nonzero"></path>
                            </g>
                        </g>
                    </g>
                </g>
            </g>
        </g>
    </g>
</svg>